<svg width="131" height="43" viewBox="0 0 131 43" fill="none" xmlns="http://www.w3.org/2000/svg">
<rect y="4.64404" width="27.8643" height="30.518" fill="#2F80ED"/>
<path d="M26.5374 4.64404H46.4404V35.162H23.2202L26.5374 4.64404Z" fill="#2D9CDB"/>
<path d="M23.354 17.5128L36.0409 18.447L17.9943 40.8072L19.1954 24.4955L6.50852 23.5614L24.5551 1.20107L23.354 17.5128Z" fill="white"/>
<path d="M63.9816 8.29736H66.7946L70.7885 14.8256H70.815V8.29736H72.8849V17.6916H70.1781L66.0781 11.0042H66.0515V17.6916H63.9816V8.29736Z" fill="black"/>
<path d="M78.7819 8.29736H81.8868C82.6387 8.29736 83.3508 8.3814 84.0231 8.54947C84.7042 8.71754 85.2968 8.99176 85.8011 9.37213C86.3053 9.74365 86.7033 10.2302 86.9952 10.8317C87.296 11.4332 87.4464 12.163 87.4464 13.021C87.4464 13.7818 87.3004 14.454 87.0085 15.0379C86.7254 15.6128 86.3406 16.0994 85.8541 16.4974C85.3676 16.8866 84.8059 17.183 84.169 17.3864C83.5321 17.5899 82.8643 17.6916 82.1654 17.6916H78.7819V8.29736ZM80.8518 15.7809H81.9266C82.4043 15.7809 82.8466 15.7323 83.2535 15.6349C83.6692 15.5376 84.0275 15.3784 84.3282 15.1573C84.629 14.9273 84.8634 14.631 85.0315 14.2683C85.2084 13.8968 85.2968 13.4456 85.2968 12.9149C85.2968 12.4549 85.2084 12.0568 85.0315 11.7207C84.8634 11.3757 84.6334 11.0926 84.3415 10.8715C84.0496 10.6503 83.7046 10.4867 83.3065 10.3805C82.9173 10.2656 82.506 10.2081 82.0726 10.2081H80.8518V15.7809Z" fill="black"/>
<path d="M92.8307 8.29736H96.4663C96.944 8.29736 97.3951 8.34602 97.8197 8.44332C98.2531 8.53178 98.6291 8.68658 98.9475 8.90772C99.2748 9.12002 99.5313 9.41193 99.7171 9.78346C99.9117 10.1461 100.009 10.6017 100.009 11.1501C100.009 11.8136 99.8365 12.3797 99.4915 12.8485C99.1466 13.3085 98.6423 13.6004 97.9789 13.7243L100.367 17.6916H97.886L95.9223 13.9366H94.9006V17.6916H92.8307V8.29736ZM94.9006 12.1851H96.1213C96.3071 12.1851 96.5017 12.1807 96.7051 12.1718C96.9174 12.1541 97.1076 12.1143 97.2757 12.0524C97.4437 11.9816 97.5809 11.8755 97.687 11.734C97.802 11.5924 97.8595 11.3934 97.8595 11.1369C97.8595 10.898 97.8108 10.7078 97.7135 10.5663C97.6162 10.4248 97.4924 10.3186 97.342 10.2479C97.1916 10.1682 97.0191 10.1152 96.8245 10.0886C96.6299 10.0621 96.4397 10.0488 96.254 10.0488H94.9006V12.1851Z" fill="black"/>
<path d="M105.415 8.29736H108.547L110.709 14.4275H110.736L112.912 8.29736H116.03V17.6916H113.96V10.4867H113.934L111.466 17.6916H109.887L107.512 10.4867H107.485V17.6916H105.415V8.29736Z" fill="black"/>
<path d="M125.017 8.29736H126.729L130.816 17.6916H128.481L127.671 15.7013H124.022L123.239 17.6916H120.957L125.017 8.29736ZM125.814 11.0307L124.673 13.9498H126.968L125.814 11.0307Z" fill="black"/>
<path d="M63.0927 25.3432H64.121L65.9012 31.8449H65.9233L67.8473 25.3432H68.8866L70.7995 31.8449H70.8217L72.6351 25.3432H73.6081L71.3082 33.1718H70.302L68.367 26.5374H68.3448L66.3988 33.1718H65.3815L63.0927 25.3432Z" fill="black"/>
<path d="M78.5951 32.2319C78.2855 32.63 77.9464 32.9101 77.5778 33.0723C77.2092 33.2271 76.7817 33.3045 76.2952 33.3045C75.8897 33.3045 75.5248 33.2344 75.2005 33.0944C74.8762 32.9469 74.5997 32.7516 74.3712 32.5083C74.1501 32.2651 73.9768 31.9776 73.8515 31.6459C73.7336 31.3142 73.6746 30.9603 73.6746 30.5844C73.6746 30.1863 73.7409 29.8214 73.8736 29.4897C74.0063 29.1506 74.1906 28.8631 74.4265 28.6272C74.6624 28.384 74.9425 28.196 75.2668 28.0633C75.5912 27.9306 75.945 27.8643 76.3283 27.8643C76.6895 27.8643 77.0213 27.927 77.3235 28.0523C77.6257 28.1702 77.8837 28.3471 78.0975 28.583C78.3186 28.8115 78.4882 29.0953 78.6061 29.4344C78.7241 29.7661 78.7831 30.1458 78.7831 30.5733V30.8498H74.6034C74.6182 31.0709 74.6698 31.2847 74.7582 31.4911C74.854 31.6901 74.9757 31.867 75.1231 32.0218C75.2705 32.1693 75.4438 32.2872 75.6428 32.3757C75.8418 32.4641 76.0593 32.5083 76.2952 32.5083C76.6711 32.5083 76.9881 32.442 77.2461 32.3093C77.5041 32.1766 77.7363 31.9813 77.9427 31.7233L78.5951 32.2319ZM77.8542 30.12C77.8395 29.6777 77.6958 29.3239 77.423 29.0585C77.1503 28.7931 76.7743 28.6604 76.2952 28.6604C75.816 28.6604 75.429 28.7931 75.1342 29.0585C74.8393 29.3239 74.6624 29.6777 74.6034 30.12H77.8542Z" fill="black"/>
<path d="M80.073 24.8125H80.9355V28.7489H80.9576C81.1935 28.4688 81.4662 28.2513 81.7758 28.0965C82.0928 27.9417 82.4393 27.8643 82.8152 27.8643C83.2207 27.8643 83.5892 27.9343 83.921 28.0744C84.26 28.2071 84.5475 28.395 84.7834 28.6383C85.0193 28.8816 85.2036 29.1691 85.3363 29.5008C85.469 29.8325 85.5353 30.1937 85.5353 30.5844C85.5353 30.9751 85.469 31.3363 85.3363 31.668C85.2036 31.9997 85.0193 32.2872 84.7834 32.5305C84.5549 32.7737 84.2822 32.9654 83.9652 33.1054C83.6482 33.2381 83.3091 33.3045 82.9479 33.3045C82.4835 33.3045 82.0744 33.2049 81.7206 33.0059C81.3741 32.7995 81.1198 32.5489 80.9576 32.254H80.9355V33.1718H80.073V24.8125ZM80.9355 30.5844C80.9355 30.8571 80.976 31.1114 81.0571 31.3473C81.1456 31.5758 81.2709 31.7786 81.4331 31.9555C81.5952 32.125 81.7869 32.2614 82.0081 32.3646C82.2366 32.4604 82.4909 32.5083 82.771 32.5083C83.0511 32.5083 83.3017 32.4604 83.5229 32.3646C83.7514 32.2614 83.9468 32.125 84.1089 31.9555C84.2711 31.7786 84.3927 31.5758 84.4738 31.3473C84.5623 31.1114 84.6065 30.8571 84.6065 30.5844C84.6065 30.3116 84.5623 30.061 84.4738 29.8325C84.3927 29.5966 84.2711 29.3939 84.1089 29.2243C83.9468 29.0474 83.7514 28.9111 83.5229 28.8152C83.3017 28.712 83.0511 28.6604 82.771 28.6604C82.4909 28.6604 82.2366 28.712 82.0081 28.8152C81.7869 28.9111 81.5952 29.0474 81.4331 29.2243C81.2709 29.3939 81.1456 29.5966 81.0571 29.8325C80.976 30.061 80.9355 30.3116 80.9355 30.5844Z" fill="black"/>
<path d="M90.1091 25.3432H92.4311C92.7923 25.3432 93.1351 25.3801 93.4595 25.4538C93.7912 25.5202 94.0824 25.6381 94.333 25.8077C94.591 25.9698 94.7937 26.191 94.9411 26.4711C95.0959 26.7438 95.1733 27.0829 95.1733 27.4884C95.1733 27.9159 95.0923 28.2697 94.9301 28.5498C94.7679 28.83 94.5578 29.0511 94.2998 29.2133C94.0492 29.3755 93.7728 29.4897 93.4705 29.5561C93.1683 29.6224 92.8808 29.6556 92.6081 29.6556H91.0379V33.1718H90.1091V25.3432ZM91.0379 28.7931H92.6081C93.0725 28.7931 93.4484 28.6899 93.7359 28.4835C94.0308 28.2697 94.1782 27.9417 94.1782 27.4994C94.1782 27.0571 94.0308 26.7328 93.7359 26.5264C93.4484 26.3126 93.0725 26.2057 92.6081 26.2057H91.0379V28.7931Z" fill="black"/>
<path d="M96.2102 30.5844C96.2102 30.1789 96.2802 29.8104 96.4203 29.4787C96.5604 29.1469 96.752 28.8631 96.9953 28.6272C97.2385 28.384 97.5297 28.196 97.8688 28.0633C98.2079 27.9306 98.5765 27.8643 98.9745 27.8643C99.3726 27.8643 99.7412 27.9306 100.08 28.0633C100.419 28.196 100.711 28.384 100.954 28.6272C101.197 28.8631 101.389 29.1469 101.529 29.4787C101.669 29.8104 101.739 30.1789 101.739 30.5844C101.739 30.9898 101.669 31.3584 101.529 31.6901C101.389 32.0218 101.197 32.3093 100.954 32.5526C100.711 32.7885 100.419 32.9727 100.08 33.1054C99.7412 33.2381 99.3726 33.3045 98.9745 33.3045C98.5765 33.3045 98.2079 33.2381 97.8688 33.1054C97.5297 32.9727 97.2385 32.7885 96.9953 32.5526C96.752 32.3093 96.5604 32.0218 96.4203 31.6901C96.2802 31.3584 96.2102 30.9898 96.2102 30.5844ZM97.139 30.5844C97.139 30.8571 97.1796 31.1114 97.2607 31.3473C97.3491 31.5758 97.4744 31.7786 97.6366 31.9555C97.7988 32.125 97.9904 32.2614 98.2116 32.3646C98.4401 32.4604 98.6944 32.5083 98.9745 32.5083C99.2546 32.5083 99.5053 32.4604 99.7264 32.3646C99.9549 32.2614 100.15 32.125 100.312 31.9555C100.475 31.7786 100.596 31.5758 100.677 31.3473C100.766 31.1114 100.81 30.8571 100.81 30.5844C100.81 30.3116 100.766 30.061 100.677 29.8325C100.596 29.5966 100.475 29.3939 100.312 29.2243C100.15 29.0474 99.9549 28.9111 99.7264 28.8152C99.5053 28.712 99.2546 28.6604 98.9745 28.6604C98.6944 28.6604 98.4401 28.712 98.2116 28.8152C97.9904 28.9111 97.7988 29.0474 97.6366 29.2243C97.4744 29.3939 97.3491 29.5966 97.2607 29.8325C97.1796 30.061 97.139 30.3116 97.139 30.5844Z" fill="black"/>
<path d="M103.074 29.2243C103.074 28.9885 103.067 28.7673 103.052 28.5609C103.037 28.3545 103.03 28.1665 103.03 27.997H103.848C103.848 28.137 103.852 28.2771 103.859 28.4172C103.866 28.5572 103.87 28.701 103.87 28.8484H103.892C103.951 28.7231 104.032 28.6014 104.135 28.4835C104.246 28.3656 104.375 28.2624 104.522 28.1739C104.67 28.0781 104.836 28.0044 105.02 27.9528C105.204 27.8938 105.403 27.8643 105.617 27.8643C105.676 27.8643 105.735 27.868 105.794 27.8754C105.853 27.8827 105.912 27.8975 105.971 27.9196L105.916 28.7931C105.768 28.7489 105.613 28.7268 105.451 28.7268C104.921 28.7268 104.534 28.9 104.29 29.2465C104.054 29.5855 103.936 30.0536 103.936 30.6507V33.1718H103.074V29.2243Z" fill="black"/>
<path d="M109.792 28.7268H108.266V31.3142C108.266 31.4837 108.27 31.6422 108.277 31.7896C108.284 31.9297 108.314 32.055 108.366 32.1656C108.417 32.2688 108.495 32.3535 108.598 32.4199C108.701 32.4789 108.848 32.5083 109.04 32.5083C109.165 32.5083 109.294 32.4936 109.427 32.4641C109.56 32.4346 109.685 32.3904 109.803 32.3314L109.836 33.1165C109.689 33.1828 109.523 33.2307 109.339 33.2602C109.162 33.2897 108.992 33.3045 108.83 33.3045C108.52 33.3045 108.273 33.2639 108.089 33.1828C107.905 33.1017 107.761 32.9875 107.658 32.8401C107.555 32.6926 107.485 32.512 107.448 32.2983C107.418 32.0771 107.404 31.8338 107.404 31.5685V28.7268H106.276V27.997H107.404V26.5264H108.266V27.997H109.792V28.7268Z" fill="black"/>
<path d="M110.782 28.6604C111.048 28.3877 111.361 28.1886 111.722 28.0633C112.091 27.9306 112.463 27.8643 112.839 27.8643C113.606 27.8643 114.158 28.0449 114.498 28.4061C114.837 28.7673 115.006 29.3165 115.006 30.0536V32.2761C115.006 32.4236 115.014 32.5784 115.028 32.7405C115.043 32.8953 115.061 33.0391 115.084 33.1718H114.254C114.225 33.0538 114.206 32.9248 114.199 32.7848C114.199 32.6373 114.199 32.5083 114.199 32.3978H114.177C114.007 32.6631 113.779 32.8806 113.491 33.0501C113.211 33.2197 112.872 33.3045 112.474 33.3045C112.209 33.3045 111.958 33.2713 111.722 33.2049C111.494 33.1386 111.291 33.0428 111.114 32.9175C110.944 32.7848 110.808 32.6226 110.705 32.4309C110.602 32.2393 110.55 32.0181 110.55 31.7675C110.55 31.34 110.661 31.0046 110.882 30.7613C111.103 30.518 111.376 30.3374 111.7 30.2195C112.032 30.1015 112.386 30.0278 112.762 29.9983C113.145 29.9689 113.495 29.9541 113.812 29.9541H114.144V29.7993C114.144 29.4234 114.029 29.1396 113.801 28.9479C113.58 28.7563 113.266 28.6604 112.861 28.6604C112.581 28.6604 112.304 28.7083 112.032 28.8042C111.766 28.8926 111.53 29.0327 111.324 29.2243L110.782 28.6604ZM113.281 30.6839C112.728 30.6839 112.29 30.7613 111.965 30.9161C111.641 31.0709 111.479 31.3252 111.479 31.679C111.479 32.0034 111.586 32.2356 111.8 32.3757C112.021 32.5083 112.293 32.5747 112.618 32.5747C112.868 32.5747 113.086 32.5341 113.27 32.4531C113.462 32.3646 113.62 32.2503 113.746 32.1103C113.871 31.9702 113.967 31.808 114.033 31.6238C114.099 31.4321 114.136 31.2294 114.144 31.0156V30.6839H113.281Z" fill="black"/>
<path d="M116.66 24.8125H117.522V33.1718H116.66V24.8125Z" fill="black"/>
</svg>
